# xmcd CD database file
#
# Track frame offsets:
#	150
#	8086
#	32172
#	47326
#	68234
#	92374
#	112884
#	139743
#	171816
#	187294
#	200011
#	235443
#
# Disc length: 3188 seconds
#
# Revision: 3
# Processed by: cddbd v1.5.2PL0 Copyright (c) Steve Scherf et al.
# Submitted via: jack 3.1.1
#
DISCID=9f0c720c
DTITLE=Cryptopsy - Once Was Not
DYEAR=2005
DGENRE=Death Metal
TTITLE0=Luminum
TTITLE1=In the Kingdom Where Everything Dies, the Sky Is Mortal
TTITLE2=Carrionshine
TTITLE3=Adeste Infidelis
TTITLE4=The Curse of the Great
TTITLE5=The Frantic Pace of Dying
TTITLE6=Keeping the Cadaver Dogs Busy
TTITLE7=Angelskingarden
TTITLE8=The Pestilence That Walketh in Darkness (Psalm 91:5-8)
TTITLE9=The End
TTITLE10=Endless Cemetery
TTITLE11=DATA
EXTD=
EXTT0=
EXTT1=
EXTT2=
EXTT3=
EXTT4=
EXTT5=
EXTT6=
EXTT7=
EXTT8=
EXTT9=
EXTT10=
EXTT11=
PLAYORDER=
